#!OML:ASF F:\VICON\USERDATA\INSTALL\rory3\rory3.ASF
:FULLY-SPECIFIED
:DEGREES
28
root 0.6863186921815746 16.575203321233246 -11.650018526142935 12.592425667621772 -1.0623442906432765 -2.028871181524294
lfemur -32.2369264604402 9.901095369299297 -20.341724830948266
ltibia 39.284249241579516
lfoot -16.3539144649626 5.948246662096731
ltoes -12.555598116364434
rfemur -31.84812321653179 -2.7142466872010464 20.443425621075313
rtibia 41.16606553981866
rfoot -19.320015199878814 -4.316590817854137
rtoes 1.4444644997600369
lowerback 4.050274064399351 0.5820148613539224 0.3547895726969116
upperback 6.436190210751127 0.650112395635082 1.6662321338949362
thorax 1.955947885216583 0.33497806028667876 1.4661080429517512
lowerneck -13.5710202317663 -0.06102517342108956 -2.029373835308079
upperneck 18.521244046251894 0.18863876611566907 0.7238116353097684
head 7.845322356822414 0.008220885537971415 0.7201809683944662
lclavicle -1.8644571412387842e-15 8.390880973883481e-17
lhumerus -27.452759349140102 -4.905035748851429 87.74056210358802
lradius 18.634315261836587
lwrist 5.733706665123035
lhand -23.740901594141086 -3.8621017972279748
lfingers 7.125019999999999
lthumb 2.7274682358129145 26.083945192383826
rclavicle -1.8644571412387842e-15 8.390880973883481e-17
rhumerus -24.319754010973295 -14.270902905412022 -78.52554801506778
rradius 24.756586351200415
rwrist 34.81533109444232
rhand -16.888756868407885 -26.18000207250131
rfingers 7.125019999999999
rthumb 9.342338587960052 -55.94379959658443
29
root 0.6865744984985842 16.41203564293649 -12.297424276035578 13.021864180392305 -1.1067490735421501 -1.9752242389035461
lfemur -34.24287254754704 9.759864789040774 -20.567141902846842
ltibia 41.19180209539984
lfoot -17.01903476268228 6.520832638034069
ltoes -13.306467874062319
rfemur -33.86002697887824 -2.699008377103006 20.415043831767694
rtibia 43.20194295761475
rfoot -20.136261680200622 -4.753471646778164
rtoes 1.0323955788920207
lowerback 4.705073647432936 0.6735984457149973 0.3234498300935017
upperback 6.749752129935027 0.7732785674893929 1.6523700334224054
thorax 1.7515031853388343 0.39082314924145106 1.4535800219128392
lowerneck -13.746850459293745 -0.07168405906831649 -2.0423229632849096
upperneck 17.185314229518855 0.18119576483869063 0.6188579373313413
head 7.387654527209554 0.0073161363842692145 0.6949962875763845
lclavicle -1.9481979741024305e-15 -2.723327693406399e-17
lhumerus -29.15855644822754 -4.672629717614974 87.10799834092137
lradius 18.394810902753782
lwrist 6.116675467129533
lhand -23.54462927604479 -3.7038466711391083
lfingers 7.125019999999999
lthumb 2.9169926220901305 26.23614262291992
rclavicle -1.9481979741024305e-15 -2.723327693406399e-17
rhumerus -25.475360318114966 -14.664988146120397 -77.98215589938656
rradius 24.18522224023263
rwrist 34.937333318170275
rhand -16.6332718169057 -26.128079556268133
rfingers 7.125019999999999
rthumb 9.5887832127382 -55.87813159184766
30
root 0.6955149201448224 16.283526541337963 -12.767167885521095 13.97941565786283 -1.0884317293274117 -1.9045020194111841
lfemur -36.8140411575674 9.559200678178302 -20.84057623081182
ltibia 44.46545410423022
lfoot -17.521041668248138 7.487698165129467
ltoes -13.78870224045869
rfemur -36.484897760745135 -2.669640166609867 20.464356464812678
rtibia 46.817939610989654
rfoot -20.812751214013343 -5.315658442484776
rtoes 0.6589982084661505
lowerback 5.83094630576963 0.7763993627541719 0.2667211251216769
upperback 7.191412882851553 0.8949605354954189 1.6778124019579046
thorax 1.4538245335974063 0.4550682939487224 1.5093894623564748
lowerneck -14.014557568282438 -0.08798335613840055 -2.0578377337600897
upperneck 15.647214998553421 0.1740093984390717 0.540211665507883
head 6.905860360293611 0.007106848026737056 0.6775424961624763
lclavicle -1.8404569160263657e-15 1.1551938235321755e-16
lhumerus -30.00783291279307 -4.016509839284462 86.62701563743713
lradius 18.255577602097354
lwrist 6.122996213151875
lhand -23.251122182933216 -3.4241124384036032
lfingers 7.125019999999999
lthumb 3.200421200598119 26.50867041698743
rclavicle -1.8404569160263657e-15 1.1551938235321755e-16
rhumerus -26.133102562482378 -15.008824226418149 -77.47067799868425
rradius 23.84022103394431
rwrist 35.03338854676281
rhand -16.36877192596487 -25.955789699772833
rfingers 7.125019999999999
rthumb 9.843925082753886 -55.69023089424973
31
root 0.6959926492768072 16.145709713964244 -13.041091177711822 14.461695001550122 -1.117983856825231 -1.8466791580570112
lfemur -38.881796325351075 9.404303909987213 -21.045570971539174
ltibia 46.95936231406691
lfoot -17.889433063999302 8.445956594958638
ltoes -14.310683241278346
rfemur -38.6474214478028 -2.5765433735346495 20.4791755524754
rtibia 49.57672948902558
rfoot -21.32729583962537 -5.844910720503022
rtoes 0.5788663636043747
lowerback 6.834050773740119 0.8491542426194282 0.25818336802485997
upperback 7.397395052373267 1.002611882306933 1.693335595532414
thorax 1.1086376645450389 0.5068969206027923 1.5201196448502756
lowerneck -14.26768186373406 -0.06967980479916065 -2.0874955949392713
upperneck 14.298430646968443 0.21203909941484228 0.46348818396874547
head 6.489098911427145 0.02128959946403338 0.6638599891239452
lclavicle -1.8041288807447346e-15 1.6383742670493903e-16
lhumerus -31.43961029798341 -3.551727328145755 85.96394893036535
lradius 18.0255393328703
lwrist 5.906242912320332
lhand -23.005857496015402 -3.2894010630000015
lfingers 7.125019999999999
lthumb 3.4372531397469794 26.634952991064587
rclavicle -1.8041288807447346e-15 1.6383742670493903e-16
rhumerus -27.24650389961174 -15.489910471189724 -76.82575137952476
rradius 23.211437379251343
rwrist 35.36108763509606
rhand -16.04919333379639 -25.83455355077772
rfingers 7.125019999999999
rthumb 10.152211450042069 -55.553277993345276
